<?xml version="1.0" encoding="UTF-8" standalone="no"?>
<svg
   xmlns:dc="http://purl.org/dc/elements/1.1/"
   xmlns:cc="http://creativecommons.org/ns#"
   xmlns:rdf="http://www.w3.org/1999/02/22-rdf-syntax-ns#"
   xmlns:svg="http://www.w3.org/2000/svg"
   xmlns="http://www.w3.org/2000/svg"
   viewBox="0 0 255.16223 205.64743"
   height="205.64743"
   width="255.16223"
   id="svg18"
   version="1.1">
  <metadata
     id="metadata24">
    <rdf:RDF>
      <cc:Work
         rdf:about="">
        <dc:format>image/svg+xml</dc:format>
        <dc:type
           rdf:resource="http://purl.org/dc/dcmitype/StillImage" />
        <dc:title></dc:title>
      </cc:Work>
    </rdf:RDF>
  </metadata>
  <defs
     id="defs22" />
  <g
     transform="translate(-0.41382778,-25.321295)"
     id="g28">
    <path
       id="path32"
       d="m 95.25,183.25048 c 18.0125,-0.15279 47.4875,-0.15279 65.5,0 18.0125,0.15279 3.275,0.27781 -32.75,0.27781 -36.025,0 -50.7625,-0.12502 -32.75,-0.27781 z M 56.764987,103.25224 c 0.472051,-17.3728 0.870454,-19.073377 1.054765,-4.50224 0.09914,7.8375 -0.157252,14.25101 -0.569752,14.25224 -0.4125,0.001 -0.630756,-4.38626 -0.485013,-9.75 z M 118,49.5 c -0.68469,-0.825 -1.01989,-1.5 -0.74489,-1.5 0.275,0 1.0602,0.675 1.74489,1.5 0.68469,0.825 1.01989,1.5 0.74489,1.5 -0.275,0 -1.0602,-0.675 -1.74489,-1.5 z m 82,1.122445 c 0,-0.207656 0.7875,-0.995156 1.75,-1.75 1.58606,-1.243871 1.62143,-1.208501 0.37756,0.377555 C 200.82119,50.915748 200,51.445479 200,50.622445 Z m 50,0 c 0,-0.207656 0.7875,-0.995156 1.75,-1.75 1.58606,-1.243871 1.62143,-1.208501 0.37756,0.377555 C 250.82119,50.915748 250,51.445479 250,50.622445 Z M 28.194949,39.5 c 0.02038,-1.65 0.244498,-2.203936 0.498042,-1.230968 0.253543,0.972967 0.236869,2.322967 -0.03705,3 C 28.382014,41.946064 28.174569,41.15 28.194949,39.5 Z m 199.000001,0 c 0.0204,-1.65 0.2445,-2.203936 0.49804,-1.230968 0.25354,0.972967 0.23687,2.322967 -0.0371,3 C 227.38201,41.946064 227.17457,41.15 227.19495,39.5 Z M 142.15789,39 c 0,-1.375 0.22698,-1.9375 0.50439,-1.25 0.27741,0.6875 0.27741,1.8125 0,2.5 -0.27741,0.6875 -0.50439,0.125 -0.50439,-1.25 z m 35,0 c 0,-1.375 0.22698,-1.9375 0.50439,-1.25 0.27741,0.6875 0.27741,1.8125 0,2.5 -0.27741,0.6875 -0.50439,0.125 -0.50439,-1.25 z M 23.404988,28.75 21.5,26.5 23.75,28.404988 C 25.864445,30.195206 26.455241,31 25.654988,31 c -0.189757,0 -1.202257,-1.0125 -2.25,-2.25 z m 114.000002,0 -1.90499,-2.25 2.25,1.904988 c 1.2375,1.047743 2.25,2.060243 2.25,2.25 0,0.800253 -0.80479,0.209457 -2.59501,-1.904988 z M 180,30.622445 c 0,-0.207656 0.7875,-0.995156 1.75,-1.75 1.58606,-1.243871 1.62143,-1.208501 0.37756,0.377555 C 180.82119,30.915748 180,31.445479 180,30.622445 Z M 231.5,29 c 0.99549,-1.1 2.03498,-2 2.30998,-2 0.275,0 -0.31449,0.9 -1.30998,2 -0.99549,1.1 -2.03498,2 -2.30998,2 -0.275,0 0.31449,-0.9 1.30998,-2 z"
       style="fill:#8c8c8c;fill-opacity:1" />
    <path
       id="path30"
       d="m 58.235455,229.96346 c -1.2455,-0.50038 -2.708,-2.07615 -3.25,-3.50172 -1.083271,-2.84922 -1.317652,-16.61968 -0.344696,-20.25179 C 56.045109,200.96742 55.587583,201 127.80112,201 c 45.03764,0 67.90588,0.3505 69.97712,1.07254 C 201.6437,203.42004 203,207.03757 203,216 c 0,8.29749 -1.35558,12.38535 -4.59683,13.86216 -3.09136,1.40852 -136.673558,1.50506 -140.167715,0.1013 z M 59.739591,181.25 C 58.87588,180.2875 47.553319,151.15 34.578346,116.5 19.697162,76.759419 10.35257,53.130803 9.267767,52.5 8.3219225,51.95 6.1446674,50.15 4.4294224,48.5 -2.3713252,41.957942 -0.23109228,30.759152 8.5633984,26.868931 14.804427,24.108227 19.217334,24.98204 24.200591,29.965297 27.514406,33.279112 28,34.361223 28,38.432013 c 0,2.567019 -0.735056,6.088748 -1.633457,7.826065 l -1.633457,3.158758 15.87096,31.791582 C 49.333075,98.693788 56.81813,113 57.237503,113 57.656877,113 58,99.240385 58,82.423077 V 51.846154 l -2.961986,-2.961987 c -9.958549,-9.958548 0.13705,-26.606836 13.888985,-22.903824 9.461951,2.547839 13.202712,15.271579 6.588156,22.408804 l -2.439912,2.632708 11.499021,34.989073 C 90.898726,105.25492 96.244326,121 96.453377,121 c 0.20905,0 5.630753,-15.75216 12.048223,-35.004791 l 11.66813,-35.00479 -2.46017,-2.923739 c -3.62423,-4.307158 -4.21681,-9.13153 -1.7943,-14.608017 1.62998,-3.684846 2.87822,-4.922118 6.64814,-6.589732 6.24103,-2.760704 10.65393,-1.886891 15.63719,3.096366 3.38158,3.381579 3.79941,4.346862 3.79941,8.777509 0,3.73889 -0.65936,5.946334 -2.64875,8.867647 L 136.70251,51.5 l 11.27016,34 c 6.19858,18.7 11.58055,34.34253 11.95993,34.76118 0.56908,0.628 23.10079,-66.22561 23.0754,-68.466771 -0.004,-0.388075 -1.17423,-2.413075 -2.59961,-4.5 -3.5737,-5.232283 -3.08811,-12.931724 1.09066,-17.293421 7.34162,-7.662991 19.05167,-5.579604 22.91548,4.076993 2.1033,5.256677 1.24311,10.103413 -2.56236,14.437605 l -2.88137,3.281697 0.2646,30.851359 L 199.5,113.5 l 16.10365,-32 16.10364,-32 -1.84838,-3 c -1.13075,-1.835257 -1.85042,-4.889852 -1.85365,-7.867647 -0.005,-4.306043 0.4331,-5.306004 3.79415,-8.667056 4.98326,-4.983257 9.39616,-5.85707 15.63719,-3.096366 8.78271,3.885011 10.90719,14.982761 4.158,21.720355 -1.70203,1.699107 -3.64248,3.274107 -4.31212,3.5 -0.66963,0.225893 -12.01893,29.207099 -25.22066,64.402684 -13.7841,36.74814 -24.73562,64.52756 -25.72362,65.25 C 194.99672,182.72289 179.93557,183 127.96386,183 65.748878,183 61.205393,182.88346 59.739591,181.25 Z"
       style="fill:#333333;fill-opacity:1" />
  </g>
</svg>
