<?xml version="1.0" encoding="UTF-8" standalone="no"?>
<!-- Created with Inkscape (http://www.inkscape.org/) -->

<svg
   xmlns:dc="http://purl.org/dc/elements/1.1/"
   xmlns:cc="http://creativecommons.org/ns#"
   xmlns:rdf="http://www.w3.org/1999/02/22-rdf-syntax-ns#"
   xmlns:svg="http://www.w3.org/2000/svg"
   xmlns="http://www.w3.org/2000/svg"
   xmlns:sodipodi="http://sodipodi.sourceforge.net/DTD/sodipodi-0.dtd"
   xmlns:inkscape="http://www.inkscape.org/namespaces/inkscape"
   version="1.1"
   id="svg53"
   width="251.95848"
   height="255.4035"
   viewBox="0 0 251.95848 255.4035"
   sodipodi:docname="001-crown-7.svg"
   inkscape:version="0.92.1 r15371">
  <metadata
     id="metadata59">
    <rdf:RDF>
      <cc:Work
         rdf:about="">
        <dc:format>image/svg+xml</dc:format>
        <dc:type
           rdf:resource="http://purl.org/dc/dcmitype/StillImage" />
        <dc:title></dc:title>
      </cc:Work>
    </rdf:RDF>
  </metadata>
  <defs
     id="defs57" />
  <sodipodi:namedview
     pagecolor="#ffffff"
     bordercolor="#666666"
     borderopacity="1"
     objecttolerance="10"
     gridtolerance="10"
     guidetolerance="10"
     inkscape:pageopacity="0"
     inkscape:pageshadow="2"
     inkscape:window-width="1600"
     inkscape:window-height="877"
     id="namedview55"
     showgrid="false"
     fit-margin-top="0"
     fit-margin-left="0"
     fit-margin-right="0"
     fit-margin-bottom="0"
     inkscape:zoom="0.921875"
     inkscape:cx="502.54927"
     inkscape:cy="114.93606"
     inkscape:window-x="-8"
     inkscape:window-y="-8"
     inkscape:window-maximized="1"
     inkscape:current-layer="svg53" />
  <g
     id="g63"
     transform="translate(-1.8575102,-0.54950171)">
    <path
       style="fill:#8c8c8c;fill-opacity:1"
       d="m 46,253.5 c -0.684689,-0.825 -1.019889,-1.5 -0.744889,-1.5 0.275,0 1.0602,0.675 1.744889,1.5 0.684689,0.825 1.019889,1.5 0.744889,1.5 -0.275,0 -1.0602,-0.675 -1.744889,-1.5 z M 43.369965,238 c 0,-5.775 0.165274,-8.1375 0.367277,-5.25 0.202002,2.8875 0.202002,7.6125 0,10.5 -0.202003,2.8875 -0.367277,0.525 -0.367277,-5.25 z m 167.004105,-0.5 c 0.002,-6.05 0.16696,-8.39607 0.36601,-5.21349 0.19905,3.18258 0.1972,8.13258 -0.004,11 -0.20131,2.86742 -0.36417,0.26349 -0.36191,-5.78651 z M 88.75,198.25034 c 21.5875,-0.15046 56.9125,-0.15046 78.5,0 21.5875,0.15045 3.925,0.27355 -39.25,0.27355 -43.175,0 -60.8375,-0.1231 -39.25,-0.27355 z M 2,9.6224447 C 2,9.4147893 2.7875,8.6272893 3.75,7.8724447 5.3360556,6.6285741 5.3714259,6.6639444 4.1275553,8.25 2.8211855,9.915748 2,10.445479 2,9.6224447 Z"
       id="path67"
       inkscape:connector-curvature="0" />
    <path
       style="fill:#333333;fill-opacity:1"
       d="m 50,255.29377 c -0.825,-0.30158 -2.5125,-1.4695 -3.75,-2.59536 C 44.150635,250.78842 44,249.83165 44,238.40747 44,231.67333 44.279532,225.43513 44.621181,224.5448 46.365498,219.99918 46.350722,220 127,220 c 80.64928,0 80.6345,-8.2e-4 82.37882,4.5448 0.34165,0.89033 0.60687,7.09447 0.58938,13.78699 -0.0343,13.13274 -0.5747,14.80771 -5.36479,16.6289 C 201.75542,256.04349 52.92803,256.36413 50,255.29377 Z M 46.881136,196.99329 C 45.990761,196.47305 44.765158,194.79923 44.157573,193.2737 43.549989,191.74816 33.590327,150.81851 22.024992,102.3189 5.5178774,33.095789 1.1988394,13.607212 1.9354364,11.669815 3.6484771,7.1641768 8.9127448,4.8780786 13.511409,6.6427515 14.43265,6.9962648 35.466466,34.303864 60.253223,67.326305 c 38.049953,50.692485 45.187957,59.713375 45.844757,57.937865 0.42786,-1.15662 3.77721,-12.31289 7.443,-24.79172 L 120.20606,77.783675 104.18004,61.641838 C 94.75943,52.153141 87.88266,44.410931 87.495637,42.857704 c -0.403511,-1.6194 -0.07247,-3.748582 0.855128,-5.5 2.195197,-4.1448 33.648445,-35.0738277 36.899235,-36.2842487 1.87622,-0.69860479 3.62378,-0.69860479 5.5,0 3.25079,1.210421 34.70404,32.1394487 36.89924,36.2842487 0.92759,1.751418 1.25863,3.8806 0.85512,5.5 -0.38696,1.553001 -7.25704,9.288642 -16.66469,18.764291 l -16.00631,16.121995 7.01018,23.72153 c 6.65962,22.53528 7.66707,25.42588 8.52185,24.45115 0.20097,-0.22917 20.1708,-26.753285 44.37741,-58.94248 24.2066,-32.189196 44.71098,-59.1059066 45.56528,-59.8149125 1.9549,-1.6224189 6.63631,-1.7945925 9.34719,-0.3437723 5.49026,2.9382999 6.01183,-0.042797 -16.65757,95.2078748 -11.58146,48.66214 -21.55553,89.73132 -22.1646,91.26484 -0.60907,1.53352 -1.9161,3.22102 -2.90451,3.75 -2.40427,1.28673 -159.843076,1.24308 -162.047454,-0.0449 z"
       id="path65"
       inkscape:connector-curvature="0" />
  </g>
</svg>
