<?xml version="1.0" encoding="UTF-8" standalone="no"?>
<svg
   xmlns:dc="http://purl.org/dc/elements/1.1/"
   xmlns:cc="http://creativecommons.org/ns#"
   xmlns:rdf="http://www.w3.org/1999/02/22-rdf-syntax-ns#"
   xmlns:svg="http://www.w3.org/2000/svg"
   xmlns="http://www.w3.org/2000/svg"
   viewBox="0 0 255.80475 212"
   height="212"
   width="255.80475"
   id="svg79"
   version="1.1">
  <metadata
     id="metadata85">
    <rdf:RDF>
      <cc:Work
         rdf:about="">
        <dc:format>image/svg+xml</dc:format>
        <dc:type
           rdf:resource="http://purl.org/dc/dcmitype/StillImage" />
        <dc:title></dc:title>
      </cc:Work>
    </rdf:RDF>
  </metadata>
  <defs
     id="defs83" />
  <g
     transform="translate(61.756717,-46.949152)"
     id="g89">
    <path
       id="path93"
       d="m 1.39305,214.22226 c 2.047962,-0.21488 5.647962,-0.21785 8,-0.007 2.352038,0.21125 0.676433,0.38706 -3.723567,0.39069 -4.4,0.004 -6.324395,-0.16921 -4.276433,-0.38408 z m 48.263983,0.006 6.49556,-0.36967 0.27126,-54.95462 0.27126,-54.95461 -0.0128,55.25011 -0.01283,55.24968 -6.75401,0.0742 -6.75401,0.0742 6.49557,-0.36967 z m 35.00844,-1.9e-4 6.50401,-0.36987 v -45.95431 c 0,-25.27487 0.3375,-45.95448 0.75,-45.95469 0.4125,-2.2e-4 0.525,20.81228 0.25,46.24999 l -0.5,46.25039 -6.75401,0.0742 -6.75401,0.0742 6.50401,-0.36986 z m 37.727577,-0.005 c 2.04796,-0.21488 5.64796,-0.21785 8,-0.007 2.35204,0.21125 0.67643,0.38706 -3.72357,0.39069 -4.4,0.004 -6.32439,-0.16921 -4.27643,-0.38408 z M -61.75157,140.36582 c 0.04798,-1.16495 0.284941,-1.4019 0.604167,-0.60417 0.288871,0.72187 0.253344,1.58437 -0.07895,1.91667 -0.332292,0.33229 -0.568641,-0.25834 -0.52522,-1.3125 z m 255,0 c 0.048,-1.16495 0.28494,-1.4019 0.60416,-0.60417 0.28887,0.72187 0.25335,1.58437 -0.0789,1.91667 -0.3323,0.33229 -0.56864,-0.25834 -0.52522,-1.3125 z M 65.919483,94.286871 c 0.6875,-0.277412 1.8125,-0.277412 2.5,0 0.6875,0.277413 0.125,0.504386 -1.25,0.504386 -1.375,0 -1.9375,-0.226973 -1.25,-0.504386 z m -1.9375,-18.020833 c 0.72187,-0.288871 1.58438,-0.253344 1.91667,0.07895 0.33229,0.332292 -0.25834,0.568641 -1.3125,0.52522 -1.16495,-0.04798 -1.4019,-0.284941 -0.60417,-0.604167 z m 5,0 c 0.72187,-0.288871 1.58437,-0.253344 1.91667,0.07895 0.33229,0.332292 -0.25834,0.568641 -1.3125,0.52522 -1.16495,-0.04798 -1.4019,-0.284941 -0.60417,-0.604167 z m -12.8125,-3.816886 c -0.68469,-0.825 -1.01989,-1.5 -0.74489,-1.5 0.275,0 1.0602,0.675 1.74489,1.5 0.68469,0.825 1.01989,1.5 0.74489,1.5 -0.275,0 -1.0602,-0.675 -1.74489,-1.5 z m 20,1.122445 c 0,-0.207656 0.7875,-0.995156 1.75,-1.75 1.58606,-1.243871 1.62143,-1.208501 0.37756,0.377555 -1.30637,1.665748 -2.12756,2.195479 -2.12756,1.372445 z"
       style="fill:#8c8c8c;fill-opacity:1" />
    <path
       id="path91"
       d="m -28.969733,257.0389 c -2.270953,-1.83757 -2.373867,-2.51165 -2.704608,-17.71516 -0.372302,-17.11399 0.553008,-22.83013 3.865872,-23.88159 1.087874,-0.34528 1.977952,-1.07606 1.977952,-1.62396 0,-0.5479 -7.650948,-15.56577 -17.002106,-33.37305 -9.351158,-17.80728 -17.425459,-33.49037 -17.942891,-34.85132 -1.317723,-3.46588 0.438116,-9.1008 3.6143,-11.59918 3.304102,-2.59901 8.33206,-2.61886 11.603165,-0.0458 1.524421,1.19911 10.85632,17.81366 23.309327,41.5 l 20.767141,39.50031 h 7.325532 c 4.558514,0 7.325532,-0.40612 7.325532,-1.07518 0,-0.59135 -7.7625,-15.76437 -17.25,-33.71781 -9.4875,-17.95345 -17.370445,-33.10711 -17.517656,-33.67482 -0.21985,-0.84783 61.583676,-23.57612 64.017656,-23.54254 0.4125,0.006 0.75,20.73091 0.75,46.05604 v 46.04569 l 6.75,-0.29569 6.75,-0.29569 0.5,-57.33705 0.5,-57.337045 2.80576,-2.412952 c 6.03317,-5.188509 15.52593,-2.00448 17.07208,5.726257 0.34219,1.71093 0.62216,27.6001 0.62216,57.53148 v 54.42069 l 6.75,-0.29569 6.75,-0.29569 0.26016,-45.85309 c 0.20399,-35.95408 0.52782,-45.76101 1.5,-45.42657 31.840417,10.95352 60.720507,21.48346 60.728877,22.1423 0.006,0.47445 -7.86404,15.8426 -17.48904,34.15145 -9.625,18.30884 -17.5,33.78316 -17.5,34.38736 0,0.69809 2.67039,1.09855 7.32553,1.09855 h 7.32553 l 20.76714,-39.50032 c 12.45301,-23.68634 21.78491,-40.30089 23.30933,-41.5 7.75917,-6.10336 18.82152,3.12261 14.85115,12.38582 -0.73421,1.71297 -8.97273,17.59193 -18.30784,35.28657 l -16.97291,32.17208 2.85103,2.10786 2.85104,2.10786 v 18.47007 c 0,17.13673 -0.14438,18.61444 -2,20.47006 -1.97129,1.97129 -3.33333,2 -94.889217,2 -89.943924,0 -92.964067,-0.0606 -95.249996,-1.91025 z M 63.338803,75.917008 c -10.06565,-2.261311 -14.18223,-16.210002 -7.0449,-23.87103 2.5836,-2.773172 7.80701,-5.096826 11.45731,-5.096826 7.61474,0 15.30057,9.175588 14.06477,16.790966 -1.41711,8.732593 -9.65193,14.159536 -18.47718,12.17689 z"
       style="fill:#333333;fill-opacity:1" />
  </g>
</svg>
