<?xml version="1.0" encoding="UTF-8" standalone="no"?>
<svg
   xmlns:dc="http://purl.org/dc/elements/1.1/"
   xmlns:cc="http://creativecommons.org/ns#"
   xmlns:rdf="http://www.w3.org/1999/02/22-rdf-syntax-ns#"
   xmlns:svg="http://www.w3.org/2000/svg"
   xmlns="http://www.w3.org/2000/svg"
   viewBox="0 0 189.80475 255.12442"
   height="255.12442"
   width="189.80475"
   id="svg95"
   version="1.1">
  <metadata
     id="metadata101">
    <rdf:RDF>
      <cc:Work
         rdf:about="">
        <dc:format>image/svg+xml</dc:format>
        <dc:type
           rdf:resource="http://purl.org/dc/dcmitype/StillImage" />
        <dc:title></dc:title>
      </cc:Work>
    </rdf:RDF>
  </metadata>
  <defs
     id="defs99" />
  <g
     transform="translate(-33.0738,-0.61538462)"
     id="g105">
    <path
       id="path109"
       d="m 103,253.5 c -0.68469,-0.825 -1.01989,-1.5 -0.74489,-1.5 0.275,0 1.0602,0.675 1.74489,1.5 0.68469,0.825 1.01989,1.5 0.74489,1.5 -0.275,0 -1.0602,-0.675 -1.74489,-1.5 z m 15.19681,-31.24486 c 5.33324,-0.17945 14.33324,-0.18018 20,-0.002 5.66675,0.17857 1.30319,0.3254 -9.69681,0.32628 -11,8.9e-4 -15.63644,-0.14522 -10.30319,-0.32467 z M 104,199.5 c -0.68469,-0.825 -1.01989,-1.5 -0.74489,-1.5 0.275,0 1.0602,0.675 1.74489,1.5 0.68469,0.825 1.01989,1.5 0.74489,1.5 -0.275,0 -1.0602,-0.675 -1.74489,-1.5 z m 1.5,-81.5 c 0.33992,-0.55 0.81648,-1 1.05902,-1 0.24254,0 0.44098,0.45 0.44098,1 0,0.55 -0.47656,1 -1.05902,1 -0.58246,0 -0.7809,-0.45 -0.44098,-1 z M 207.07895,51.416667 c 0.048,-1.164943 0.28494,-1.4019 0.60416,-0.604167 0.28887,0.721875 0.25335,1.584375 -0.0789,1.916667 -0.3323,0.332291 -0.56864,-0.258334 -0.52522,-1.3125 z M 62,46.5 C 61.315311,45.675 60.980111,45 61.255111,45 c 0.275,0 1.0602,0.675 1.744889,1.5 0.684689,0.825 1.019889,1.5 0.744889,1.5 -0.275,0 -1.0602,-0.675 -1.744889,-1.5 z m 65.8125,-3.183114 c 0.72187,-0.288871 1.58437,-0.253344 1.91667,0.07895 0.33229,0.332292 -0.25834,0.568641 -1.3125,0.52522 -1.16495,-0.04798 -1.4019,-0.284941 -0.60417,-0.604167 z M 126.25,31.310674 c 0.9625,-0.251527 2.5375,-0.251527 3.5,0 0.9625,0.251528 0.175,0.457323 -1.75,0.457323 -1.925,0 -2.7125,-0.205795 -1.75,-0.457323 z M 116.40499,26.75 114.5,24.5 l 2.25,1.904988 c 1.2375,1.047743 2.25,2.060243 2.25,2.25 0,0.800253 -0.80479,0.209457 -2.59501,-1.904988 z M 138.5,27 c 0.99549,-1.1 2.03498,-2 2.30998,-2 0.275,0 -0.31449,0.9 -1.30998,2 -0.99549,1.1 -2.03498,2 -2.30998,2 -0.275,0 0.31449,-0.9 1.30998,-2 z M 33.078947,20.416667 c 0.04798,-1.164943 0.284941,-1.4019 0.604167,-0.604167 0.288871,0.721875 0.253344,1.584375 -0.07895,1.916667 -0.332292,0.332291 -0.568641,-0.258334 -0.52522,-1.3125 z m 189.000003,0 c 0.048,-1.164943 0.28494,-1.4019 0.60416,-0.604167 0.28887,0.721875 0.25335,1.584375 -0.0789,1.916667 -0.3323,0.332291 -0.56864,-0.258334 -0.52522,-1.3125 z m -110,-2 c 0.048,-1.164943 0.28494,-1.4019 0.60416,-0.604167 0.28887,0.721875 0.25335,1.584375 -0.0789,1.916667 -0.3323,0.332291 -0.56864,-0.258334 -0.52522,-1.3125 z m 31,0 c 0.048,-1.164943 0.28494,-1.4019 0.60416,-0.604167 0.28887,0.721875 0.25335,1.584375 -0.0789,1.916667 -0.3323,0.332291 -0.56864,-0.258334 -0.52522,-1.3125 z m -110.000003,-3 c 0.04798,-1.164943 0.284941,-1.4019 0.604167,-0.604167 0.288871,0.721875 0.253344,1.584375 -0.07895,1.916667 -0.332292,0.332291 -0.568641,-0.258334 -0.52522,-1.3125 z m 31,0 c 0.04798,-1.164943 0.284941,-1.4019 0.604167,-0.604167 0.288871,0.721875 0.253344,1.584375 -0.07895,1.916667 -0.332292,0.332291 -0.568641,-0.258334 -0.52522,-1.3125 z m 127.000003,0 c 0.048,-1.164943 0.28494,-1.4019 0.60416,-0.604167 0.28887,0.721875 0.25335,1.584375 -0.0789,1.916667 -0.3323,0.332291 -0.56864,-0.258334 -0.52522,-1.3125 z m 31,0 c 0.048,-1.164943 0.28494,-1.4019 0.60416,-0.604167 0.28887,0.721875 0.25335,1.584375 -0.0789,1.916667 -0.3323,0.332291 -0.56864,-0.258334 -0.52522,-1.3125 z m -110,-2 c 0.048,-1.164943 0.28494,-1.4019 0.60416,-0.604167 0.28887,0.721875 0.25335,1.584375 -0.0789,1.916667 -0.3323,0.332291 -0.56864,-0.258334 -0.52522,-1.3125 z m 31,0 c 0.048,-1.164943 0.28494,-1.4019 0.60416,-0.604167 0.28887,0.721875 0.25335,1.584375 -0.0789,1.916667 -0.3323,0.332291 -0.56864,-0.258334 -0.52522,-1.3125 z M 37.5,7 C 38.495486,5.9 39.534975,5 39.809975,5 40.084975,5 39.495486,5.9 38.5,7 37.504514,8.1 36.465025,9 36.190025,9 35.915025,9 36.504514,8.1 37.5,7 Z M 59.404988,6.75 57.5,4.5 59.75,6.4049876 C 60.9875,7.4527307 62,8.4652307 62,8.6549876 62,9.4552408 61.195206,8.8644448 59.404988,6.75 Z M 195.5,7 c 0.99549,-1.1 2.03498,-2 2.30998,-2 0.275,0 -0.31449,0.9 -1.30998,2 -0.99549,1.1 -2.03498,2 -2.30998,2 -0.275,0 0.31449,-0.9 1.30998,-2 z M 217.40499,6.75 215.5,4.5 l 2.25,1.9049876 c 1.2375,1.0477431 2.25,2.0602431 2.25,2.25 C 220,9.4552408 219.19521,8.8644448 217.40499,6.75 Z M 47.25,2.3106745 c 0.9625,-0.2515276 2.5375,-0.2515276 3.5,0 0.9625,0.2515275 0.175,0.4573228 -1.75,0.4573228 -1.925,0 -2.7125,-0.2057953 -1.75,-0.4573228 z m 158,0 c 0.9625,-0.2515276 2.5375,-0.2515276 3.5,0 0.9625,0.2515275 0.175,0.4573228 -1.75,0.4573228 -1.925,0 -2.7125,-0.2057953 -1.75,-0.4573228 z"
       style="fill:#8c8c8c;fill-opacity:1" />
    <path
       id="path107"
       d="m 106.3083,255.01865 c -4.56565,-1.8979 -5.51465,-5.04477 -5.14781,-17.07002 C 101.64072,222.20648 100.18357,223 128.61078,223 c 20.84178,0 22.5236,0.13438 24.33344,1.94422 2.57265,2.57265 3.33907,7.17923 2.90995,17.49045 -0.30153,7.24574 -0.69237,8.849 -2.62982,10.78793 -2.21006,2.21176 -2.88739,2.28359 -23.5,2.49226 -11.67339,0.11817 -22.21062,-0.19512 -23.41605,-0.69621 z m 1,-54.02825 c -1.20544,-0.48555 -2.86631,-1.91953 -3.69082,-3.18661 C 101.41997,194.42673 49,53.581454 49,51.054106 49,47.917701 53.360253,44 56.850953,44 c 2.096846,0 3.761525,0.957562 5.795455,3.333678 C 64.215884,49.167201 74.5,66.026124 85.5,84.797951 c 11,18.771829 20.225,34.145489 20.5,34.163689 0.275,0.0182 3.6073,-15.37822 7.40511,-34.214271 3.79782,-18.836053 7.5185,-35.47835 8.26819,-36.982882 2.32548,-4.666939 9.30486,-5.096221 12.42924,-0.764487 1.1684,1.619915 4.11493,13.941105 8.36999,35 3.61175,17.875 6.9131,33.56541 7.33633,34.86757 0.65998,2.03054 3.78739,-2.75042 21.96918,-33.584914 11.65981,-19.773871 22.0276,-36.701779 23.03955,-37.617574 C 199.30139,41.607293 207,45.051261 207,51.114878 c 0,3.093808 -50.65594,140.677732 -53.88278,146.348172 -0.92739,1.62968 -2.79565,3.27233 -4.15169,3.65032 -3.63227,1.0125 -39.09823,0.90781 -41.65723,-0.12297 z M 44.968472,33.058959 C 36.765064,30.566578 33.314102,24.843397 33.8492,14.618421 33.951081,12.671607 35.417087,10.319755 38.368421,7.3684211 42.582349,3.1544933 42.955061,3 48.907144,3 c 5.749951,0 6.443719,0.255468 10.183787,3.75 9.107714,8.509791 5.867797,22.945467 -5.882262,26.208831 -4.19198,1.164246 -4.716777,1.170623 -8.240197,0.100128 z M 202.31524,32.929197 C 197.9899,31.635476 193.25882,26.682959 192.06335,22.197478 190.53687,16.469997 192.2081,11.14235 196.90907,6.75 200.64914,3.255468 201.3429,3 207.09286,3 c 5.95208,0 6.32479,0.1544933 10.53872,4.3684211 4.38993,4.3899279 4.99337,6.1808969 4.42448,13.1315789 -0.72062,8.804671 -10.74895,15.118695 -19.74082,12.429197 z M 117.36842,26.631579 C 112.97849,22.241651 112.37505,20.450682 112.94394,13.5 113.53637,6.2616192 120.13416,0.61538462 128,0.61538462 c 7.86584,0 14.46363,5.64623458 15.05606,12.88461538 0.56889,6.950682 -0.0345,8.741651 -4.42448,13.131579 C 134.40366,30.859502 134.06172,31 128,31 c -6.06172,0 -6.40366,-0.140498 -10.63158,-4.368421 z"
       style="fill:#333333;fill-opacity:1" />
  </g>
</svg>
