<?xml version="1.0" encoding="UTF-8" standalone="no"?>
<svg
   xmlns:dc="http://purl.org/dc/elements/1.1/"
   xmlns:cc="http://creativecommons.org/ns#"
   xmlns:rdf="http://www.w3.org/1999/02/22-rdf-syntax-ns#"
   xmlns:svg="http://www.w3.org/2000/svg"
   xmlns="http://www.w3.org/2000/svg"
   viewBox="0 0 256.08963 255.57143"
   height="255.57143"
   width="256.08963"
   id="svg10"
   version="1.1">
  <metadata
     id="metadata16">
    <rdf:RDF>
      <cc:Work
         rdf:about="">
        <dc:format>image/svg+xml</dc:format>
        <dc:type
           rdf:resource="http://purl.org/dc/dcmitype/StillImage" />
        <dc:title></dc:title>
      </cc:Work>
    </rdf:RDF>
  </metadata>
  <defs
     id="defs14" />
  <g
     transform="translate(0.08963245,-0.38914369)"
     id="g20">
    <path
       id="path24"
       d="m 183,70.622445 c 0,-0.207656 0.7875,-0.995156 1.75,-1.75 1.58606,-1.243871 1.62143,-1.208501 0.37756,0.377555 C 183.82119,70.915748 183,71.445479 183,70.622445 Z M 68.404988,65.75 66.5,63.5 68.75,65.404988 C 70.864445,67.195206 71.455241,68 70.654988,68 c -0.189757,0 -1.202257,-1.0125 -2.25,-2.25 z M 190,62.622445 c 0,-0.207656 0.7875,-0.995156 1.75,-1.75 1.58606,-1.243871 1.62143,-1.208501 0.37756,0.377555 C 190.82119,62.915748 190,63.445479 190,62.622445 Z M 61,57.5 C 60.315311,56.675 59.980111,56 60.255111,56 c 0.275,0 1.0602,0.675 1.744889,1.5 0.684689,0.825 1.019889,1.5 0.744889,1.5 -0.275,0 -1.0602,-0.675 -1.744889,-1.5 z m 136,-2.877555 c 0,-0.207656 0.7875,-0.995156 1.75,-1.75 1.58606,-1.243871 1.62143,-1.208501 0.37756,0.377555 C 197.82119,54.915748 197,55.445479 197,54.622445 Z M 54,49.5 C 53.315311,48.675 52.980111,48 53.255111,48 c 0.275,0 1.0602,0.675 1.744889,1.5 0.684689,0.825 1.019889,1.5 0.744889,1.5 -0.275,0 -1.0602,-0.675 -1.744889,-1.5 z m 150,-2.877555 c 0,-0.207656 0.7875,-0.995156 1.75,-1.75 1.58606,-1.243871 1.62143,-1.208501 0.37756,0.377555 C 204.82119,46.915748 204,47.445479 204,46.622445 Z M 47,41.5 C 46.315311,40.675 45.980111,40 46.255111,40 c 0.275,0 1.0602,0.675 1.744889,1.5 0.684689,0.825 1.019889,1.5 0.744889,1.5 -0.275,0 -1.0602,-0.675 -1.744889,-1.5 z M 211.5,38 c 0.99549,-1.1 2.03498,-2 2.30998,-2 0.275,0 -0.31449,0.9 -1.30998,2 -0.99549,1.1 -2.03498,2 -2.30998,2 -0.275,0 0.31449,-0.9 1.30998,-2 z M 40,33.5 C 39.315311,32.675 38.980111,32 39.255111,32 c 0.275,0 1.0602,0.675 1.744889,1.5 0.684689,0.825 1.019889,1.5 0.744889,1.5 -0.275,0 -1.0602,-0.675 -1.744889,-1.5 z m 177,-1.877555 c 0,-0.207656 0.7875,-0.995156 1.75,-1.75 1.58606,-1.243871 1.62143,-1.208501 0.37756,0.377555 C 217.82119,31.915748 217,32.445479 217,31.622445 Z M 32.404988,24.75 30.5,22.5 32.75,24.404988 C 34.864445,26.195206 35.455241,27 34.654988,27 c -0.189757,0 -1.202257,-1.0125 -2.25,-2.25 z M 224,23.622445 c 0,-0.207656 0.7875,-0.995156 1.75,-1.75 1.58606,-1.243871 1.62143,-1.208501 0.37756,0.377555 C 224.82119,23.915748 224,24.445479 224,23.622445 Z M 25,16.5 C 24.315311,15.675 23.980111,15 24.255111,15 c 0.275,0 1.0602,0.675 1.744889,1.5 0.684689,0.825 1.019889,1.5 0.744889,1.5 -0.275,0 -1.0602,-0.675 -1.744889,-1.5 z m 206,-0.877555 c 0,-0.207656 0.7875,-0.995156 1.75,-1.75 1.58606,-1.243871 1.62143,-1.208501 0.37756,0.377555 C 231.82119,15.915748 231,16.445479 231,15.622445 Z M 18,8.5 C 17.315311,7.675 16.980111,7 17.255111,7 17.530111,7 18.315311,7.675 19,8.5 19.684689,9.325 20.019889,10 19.744889,10 19.469889,10 18.684689,9.325 18,8.5 Z M 238,7.6224447 c 0,-0.2076554 0.7875,-0.9951554 1.75,-1.75 C 241.33606,4.6285741 241.37143,4.6639444 240.12756,6.25 238.82119,7.915748 238,8.4454789 238,7.6224447 Z M 133.40499,2.75 131.5,0.5 l 2.25,1.9049876 c 1.2375,1.0477431 2.25,2.0602431 2.25,2.25 0,0.8002532 -0.80479,0.2094572 -2.59501,-1.9049876 z"
       style="fill:#8c8c8c;fill-opacity:1" />
    <path
       id="path22"
       d="M 4.8278174,254.86366 C 1.2951744,253.57015 0,249.56005 0,239.91588 0,231.54662 1.0726209,227.4273 3.7893146,225.3633 c 2.5260298,-1.91915 245.8953454,-1.91915 248.4213754,0 2.71669,2.064 3.78931,6.18332 3.78931,14.55258 0,10.03626 -1.24891,13.62664 -5.22176,15.01158 -4.0685,1.41829 -242.0713903,1.35655 -245.9504226,-0.0638 z M 5.0197076,204.71555 C 3.6555468,204.02532 1.9746807,202.34445 1.2844494,200.98029 -0.54866136,197.35736 -0.54717274,8.6397143 1.2859952,5.0166071 2.7566478,2.109982 6.7090861,0.45918517 10.137466,1.3196537 11.686972,1.7085549 23.862661,14.835585 44.027898,37.858094 67.418226,64.562668 75.78647,73.495601 76.615575,72.644786 77.229142,72.015154 87.533542,56.425 99.514243,38 111.49494,19.575 122.05849,3.6844482 122.98878,2.6876628 125.69491,-0.21187194 130.68796,0.20295731 133.91765,3.5956473 135.4383,5.1930413 146.04807,20.9 157.49493,38.5 c 11.44686,17.6 21.36039,32.80495 22.03008,33.788778 1.08093,1.587977 4.7868,-2.305417 33.01293,-34.683414 19.14912,-21.965819 32.7006,-36.69940108 34.07139,-37.04344734 3.08103,-0.77329025 6.92927,1.13001474 8.2804,4.09540814 1.43065,3.139933 1.42694,192.5495852 -0.004,196.4481852 -0.52592,1.43303 -2.08657,3.12053 -3.4681,3.75 -3.80623,1.73423 -242.9624323,1.59839 -246.3980724,-0.13996 z"
       style="fill:#333333;fill-opacity:1" />
  </g>
</svg>
