<?xml version="1.0" encoding="UTF-8" standalone="no"?>
<svg
   xmlns:dc="http://purl.org/dc/elements/1.1/"
   xmlns:cc="http://creativecommons.org/ns#"
   xmlns:rdf="http://www.w3.org/1999/02/22-rdf-syntax-ns#"
   xmlns:svg="http://www.w3.org/2000/svg"
   xmlns="http://www.w3.org/2000/svg"
   viewBox="0 0 237.80475 255.30286"
   height="255.30286"
   width="237.80475"
   id="svg200"
   version="1.1">
  <metadata
     id="metadata206">
    <rdf:RDF>
      <cc:Work
         rdf:about="">
        <dc:format>image/svg+xml</dc:format>
        <dc:type
           rdf:resource="http://purl.org/dc/dcmitype/StillImage" />
        <dc:title></dc:title>
      </cc:Work>
    </rdf:RDF>
  </metadata>
  <defs
     id="defs204" />
  <g
     transform="translate(-9.0738038,-0.64832746)"
     id="g210">
    <path
       id="path214"
       d="m 223,179.62244 c 0,-0.20765 0.7875,-0.99515 1.75,-1.75 1.58606,-1.24387 1.62143,-1.2085 0.37756,0.37756 C 223.82119,179.91575 223,180.44548 223,179.62244 Z m 7,-7 c 0,-0.20765 0.7875,-0.99515 1.75,-1.75 1.58606,-1.24387 1.62143,-1.2085 0.37756,0.37756 C 230.82119,172.91575 230,173.44548 230,172.62244 Z M 82.651659,167.25 c -0.256506,-0.4125 2.304437,-0.62469 5.690983,-0.47153 11.028011,0.49874 12.332578,0.89823 3.466375,1.06149 -4.780041,0.088 -8.900852,-0.17746 -9.157358,-0.58996 z m 72.346521,0 c -0.001,-0.4125 2.8115,-0.62469 6.25,-0.47153 11.2863,0.50271 12.40637,0.89878 3.00182,1.06149 -5.0875,0.088 -9.25082,-0.17746 -9.25182,-0.58996 z m 24.08077,-24.83333 c 0.048,-1.16495 0.28494,-1.4019 0.60416,-0.60417 0.28887,0.72187 0.25335,1.58437 -0.0789,1.91667 -0.3323,0.33229 -0.56864,-0.25834 -0.52522,-1.3125 z M 74.194949,131.5 c 0.02038,-1.65 0.244498,-2.20394 0.498042,-1.23097 0.253543,0.97297 0.236869,2.32297 -0.03705,3 C 74.382014,133.94606 74.174569,133.15 74.194949,131.5 Z m 15.962946,0.5 c 0,-1.375 0.226973,-1.9375 0.504386,-1.25 0.277412,0.6875 0.277412,1.8125 0,2.5 -0.277413,0.6875 -0.504386,0.125 -0.504386,-1.25 z M 9.0789474,131.41667 c 0.047984,-1.16495 0.2849403,-1.4019 0.6041666,-0.60417 0.2888706,0.72187 0.2533443,1.58437 -0.078947,1.91667 -0.3322917,0.33229 -0.5686404,-0.25834 -0.5252196,-1.3125 z m 237.0000026,0 c 0.048,-1.16495 0.28494,-1.4019 0.60416,-0.60417 0.28887,0.72187 0.25335,1.58437 -0.0789,1.91667 -0.3323,0.33229 -0.56864,-0.25834 -0.52522,-1.3125 z M 165.27236,120 c 0,-2.475 0.19502,-3.4875 0.43337,-2.25 0.23836,1.2375 0.23836,3.2625 0,4.5 -0.23835,1.2375 -0.43337,0.225 -0.43337,-2.25 z m 15.88553,0 c 0,-1.375 0.22698,-1.9375 0.50439,-1.25 0.27741,0.6875 0.27741,1.8125 0,2.5 -0.27741,0.6875 -0.50439,0.125 -0.50439,-1.25 z M 74.194949,108.5 c 0.02038,-1.65 0.244498,-2.20394 0.498042,-1.23097 0.253543,0.97297 0.236869,2.32297 -0.03705,3 C 74.382014,110.94606 74.174569,110.15 74.194949,108.5 Z M 90.157895,108 c 0,-1.375 0.226973,-1.9375 0.504386,-1.25 0.277412,0.6875 0.277412,1.8125 0,2.5 -0.277413,0.6875 -0.504386,0.125 -0.504386,-1.25 z m 89.921055,-3.58333 c 0.048,-1.16495 0.28494,-1.4019 0.60416,-0.60417 0.28887,0.72187 0.25335,1.58437 -0.0789,1.91667 -0.3323,0.33229 -0.56864,-0.25834 -0.52522,-1.3125 z M 25,89.874182 c 0,-0.275 1.35,-1.793382 3,-3.374182 1.65,-1.5808 3,-2.649182 3,-2.374182 0,0.275 -1.35,1.793382 -3,3.374182 -1.65,1.5808 -3,2.649182 -3,2.374182 z M 227.43709,86.75 224.5,83.5 l 3.25,2.937091 C 230.77946,89.174872 231.45965,90 230.68709,90 c -0.1721,0 -1.6346,-1.4625 -3.25,-3.25 z M 70.26375,68.282419 c 1.520062,-0.229855 3.770062,-0.223712 5,0.01365 1.229937,0.237362 -0.01375,0.425424 -2.76375,0.417917 -2.75,-0.0075 -3.756313,-0.201713 -2.23625,-0.431567 z m 111,0 c 1.52006,-0.229855 3.77006,-0.223712 5,0.01365 1.22994,0.237362 -0.0137,0.425424 -2.76375,0.417917 -2.75,-0.0075 -3.75631,-0.201713 -2.23625,-0.431567 z M 107,61.874182 c 0,-0.275 1.35,-1.793382 3,-3.374182 1.65,-1.5808 3,-2.649182 3,-2.374182 0,0.275 -1.35,1.793382 -3,3.374182 -1.65,1.5808 -3,2.649182 -3,2.374182 z m 19.25,-29.563508 c 0.9625,-0.251527 2.5375,-0.251527 3.5,0 0.9625,0.251528 0.175,0.457323 -1.75,0.457323 -1.925,0 -2.7125,-0.205795 -1.75,-0.457323 z"
       style="fill:#8c8c8c;fill-opacity:1" />
    <path
       id="path212"
       d="M 39.894491,254.88588 C 36.051814,253.47562 35,250.0419 35,238.90749 c 0,-9.28225 0.17581,-10.17421 2.454545,-12.45294 L 39.909091,224 l 87.295459,0.0318 c 67.04509,0.0244 87.66351,0.3144 88.88211,1.25 2.99104,2.29645 3.91334,5.59675 3.91334,14.00324 0,10.66295 -1.19348,14.23815 -5.22176,15.64242 -3.99156,1.39147 -171.087249,1.35174 -174.883749,-0.0416 z m 2.846033,-51.30348 c -4.898092,-1.76309 -6.478449,-3.14837 -8.813612,-7.72566 C 32.644438,193.34288 32,190.0287 32,185.94712 c 0,-6.01881 -0.100491,-6.2436 -5.418157,-12.11981 -5.728621,-6.33033 -11.655529,-16.59594 -14.172631,-24.54748 -0.832193,-2.62891 -1.773861,-9.28507 -2.092594,-14.79148 C 9.2311196,115.73538 15.091441,100.74327 28.914988,86.909238 40.984937,74.830139 55.05252,69 72.128311,69 c 12.000514,0 12.183864,0.105915 9.802093,5.662361 -5.546415,12.939261 -8.390197,31.859489 -7.62257,50.714409 0.597687,14.68077 2.29361,24.55528 6.118199,35.62323 l 2.24611,6.5 8.791227,0.29079 c 8.072841,0.26703 8.74234,0.14445 8.193037,-1.5 -0.329005,-0.98493 -1.969258,-5.70808 -3.645008,-10.49589 -9.242703,-26.40744 -7.32335,-60.002518 4.748591,-83.116176 7.01203,-13.425653 17.26402,-21.646694 27.02213,-21.668955 8.71076,-0.01987 15.97633,4.855153 23.09226,15.494351 9.15364,13.685818 14.11923,32.499794 14.11923,53.49588 0,16.85491 -2.59287,29.49477 -9.48748,46.25 -0.65395,1.58922 0.0944,1.75 8.14582,1.75 h 8.86594 l 2.19999,-6.25 c 8.65187,-24.57931 8.76993,-57.32284 0.29759,-82.535289 -1.59052,-4.733143 -2.66811,-8.967739 -2.39464,-9.410213 0.86082,-1.392834 19.67329,-0.877116 25.91907,0.710534 3.27806,0.833268 9.3351,3.154925 13.4601,5.159239 9.34989,4.543058 20.97019,15.766525 26.35186,25.451949 13.13364,23.63671 8.95904,53.99741 -10.10186,73.46803 -5.11547,5.22543 -5.25,5.51171 -5.25,11.17241 0,7.38362 -3.11292,13.8859 -8,16.71046 -3.42727,1.98084 -5.21436,2.02741 -86,2.2407 -67.258752,0.17757 -83.194535,-0.0322 -86.259476,-1.13542 z M 120.20665,30.331333 C 118.34945,29.416012 115.78852,26.7889 114.33396,24.306887 108.02233,13.536912 115.46725,0.64832746 128,0.64832746 c 8.70189,0 14.94346,5.70783444 15.78176,14.43221854 0.5888,6.1277 -2.98917,12.840931 -8.14878,15.289329 -4.36265,2.07021 -11.18221,2.053172 -15.42633,-0.03854 z"
       style="fill:#333333;fill-opacity:1" />
  </g>
</svg>
