<?xml version="1.0" encoding="UTF-8" standalone="no"?>
<svg
   xmlns:dc="http://purl.org/dc/elements/1.1/"
   xmlns:cc="http://creativecommons.org/ns#"
   xmlns:rdf="http://www.w3.org/1999/02/22-rdf-syntax-ns#"
   xmlns:svg="http://www.w3.org/2000/svg"
   xmlns="http://www.w3.org/2000/svg"
   viewBox="0 0 255.80475 207.99959"
   height="207.99959"
   width="255.80475"
   id="svg10"
   version="1.1">
  <metadata
     id="metadata16">
    <rdf:RDF>
      <cc:Work
         rdf:about="">
        <dc:format>image/svg+xml</dc:format>
        <dc:type
           rdf:resource="http://purl.org/dc/dcmitype/StillImage" />
        <dc:title></dc:title>
      </cc:Work>
    </rdf:RDF>
  </metadata>
  <defs
     id="defs14" />
  <g
     transform="translate(-0.07380369,-24.000415)"
     id="g20">
    <path
       id="path24"
       d="m 88.25,184.25032 c 22.4125,-0.15002 59.0875,-0.15002 81.5,0 22.4125,0.15001 4.075,0.27275 -40.75,0.27275 -44.825,0 -63.1625,-0.12274 -40.75,-0.27275 z M 0.07894737,88.416667 c 0.04798392,-1.164943 0.2849403,-1.4019 0.60416667,-0.604167 0.28887061,0.721875 0.25334429,1.584375 -0.0789474,1.916667 -0.33229167,0.332291 -0.56864035,-0.258334 -0.52521927,-1.3125 z m 255.00000263,0 c 0.048,-1.164943 0.28494,-1.4019 0.60416,-0.604167 0.28887,0.721875 0.25335,1.584375 -0.0789,1.916667 -0.3323,0.332291 -0.56864,-0.258334 -0.52522,-1.3125 z M 3,76.622445 c 0,-0.207656 0.7875,-0.995156 1.75,-1.75 C 6.3360556,73.628574 6.3714259,73.663944 5.1275553,75.25 3.8211855,76.915748 3,77.445479 3,76.622445 Z M 24,75.5 C 23.315311,74.675 22.980111,74 23.255111,74 c 0.275,0 1.0602,0.675 1.744889,1.5 0.684689,0.825 1.019889,1.5 0.744889,1.5 -0.275,0 -1.0602,-0.675 -1.744889,-1.5 z m 206,1.122445 c 0,-0.207656 0.7875,-0.995156 1.75,-1.75 1.58606,-1.243871 1.62143,-1.208501 0.37756,0.377555 C 230.82119,76.915748 230,77.445479 230,76.622445 Z M 251,75.5 c -0.68469,-0.825 -1.01989,-1.5 -0.74489,-1.5 0.275,0 1.0602,0.675 1.74489,1.5 0.68469,0.825 1.01989,1.5 0.74489,1.5 -0.275,0 -1.0602,-0.675 -1.74489,-1.5 z M 12.730968,71.344063 c 0.677033,-0.273923 2.027033,-0.290597 3,-0.03705 C 16.703936,71.560557 16.15,71.784676 14.5,71.805055 12.85,71.825435 12.053936,71.61799 12.730968,71.344067 Z m 227.000002,0 c 0.67703,-0.273923 2.02703,-0.290597 3,-0.03705 0.97297,0.253544 0.41903,0.477663 -1.23097,0.498042 -1.65,0.02038 -2.44606,-0.187065 -1.76903,-0.460988 z M 151.07895,52.416667 c 0.048,-1.164943 0.28494,-1.4019 0.60416,-0.604167 0.28887,0.721875 0.25335,1.584375 -0.0789,1.916667 -0.3323,0.332291 -0.56864,-0.258334 -0.52522,-1.3125 z m -47,-3 c 0.048,-1.164943 0.28494,-1.4019 0.60416,-0.604167 0.28887,0.721875 0.25335,1.584375 -0.0789,1.916667 -0.3323,0.332291 -0.56864,-0.258334 -0.52522,-1.3125 z M 104.15789,45 c 0,-1.375 0.22698,-1.9375 0.50439,-1.25 0.27741,0.6875 0.27741,1.8125 0,2.5 -0.27741,0.6875 -0.50439,0.125 -0.50439,-1.25 z M 110,31.622445 c 0,-0.207656 0.7875,-0.995156 1.75,-1.75 1.58606,-1.243871 1.62143,-1.208501 0.37756,0.377555 C 110.82119,31.915748 110,32.445479 110,31.622445 Z"
       style="fill:#8c8c8c;fill-opacity:1" />
    <path
       id="path22"
       d="M 50.174314,229.68555 C 48.238926,227.62542 48,226.26403 48,217.29633 c 0,-8.42895 0.312241,-10.46042 1.911366,-12.43555 L 51.822731,202.5 124.66137,202.19997 c 50.99689,-0.21006 73.97666,0.0309 76.63379,0.80367 4.84636,1.40941 5.70484,3.65561 5.70484,14.9266 0,7.38857 -0.33243,9.22266 -2.07258,11.4349 L 202.85484,232 H 127.60173 52.348628 Z M 43.729241,182.75 C 42.820082,182.0625 34.658937,163.10473 25.593365,140.62162 11.493127,105.65226 8.6099343,99.284723 5.6475674,96.571301 -0.87683374,90.595182 -1.1334996,81.376266 5.0593341,75.443154 7.8022493,72.815275 8.8135466,72.5 14.5,72.5 c 5.693924,0 6.695842,0.313446 9.456656,2.958474 4.05576,3.885665 5.691028,9.24482 4.16056,13.635124 -0.628907,1.804083 -0.80006,3.580371 -0.380341,3.947306 C 28.383998,93.606645 91.508319,119 92.267548,119 c 0.145441,0 5.882241,-11.27808 12.748442,-25.062406 11.75306,-23.594969 12.37014,-25.126597 10.53914,-26.158743 -6.13897,-3.460589 -10.64971,-11.742343 -10.6874,-19.622154 -0.0363,-7.59944 2.4271,-13.366005 7.68821,-17.997026 9.66084,-8.503806 23.28215,-8.167739 32.24545,0.795564 5.27652,5.276518 6.65905,8.732746 6.63888,16.596712 -0.015,5.858469 -0.48069,7.841315 -2.75148,11.716114 -1.50336,2.565292 -4.28026,5.84403 -6.17089,7.286084 l -3.43751,2.621917 12.50794,25.000487 c 7.8221,15.634571 12.95819,24.822081 13.7098,24.524261 31.42552,-12.45203 62.38483,-25.03624 62.965,-25.593746 0.41971,-0.403323 0.24856,-2.209383 -0.38035,-4.013466 -1.53046,-4.390304 0.1048,-9.749459 4.16056,-13.635124 C 234.80416,72.813446 235.80608,72.5 241.5,72.5 c 5.68645,0 6.69775,0.315275 9.44067,2.943154 6.09157,5.836095 5.92554,15.094083 -0.37672,21.006532 -2.71409,2.546219 -5.85437,9.743354 -19.00202,43.550314 -9.35256,24.04854 -16.56969,41.21087 -17.76704,42.25 -1.88566,1.63649 -7.41311,1.75 -85.21454,1.75 -65.010197,0 -83.559456,-0.27326 -84.851109,-1.25 z"
       style="fill:#333333;fill-opacity:1" />
  </g>
</svg>
