<?xml version="1.0" encoding="UTF-8" standalone="no"?>
<svg
   xmlns:dc="http://purl.org/dc/elements/1.1/"
   xmlns:cc="http://creativecommons.org/ns#"
   xmlns:rdf="http://www.w3.org/1999/02/22-rdf-syntax-ns#"
   xmlns:svg="http://www.w3.org/2000/svg"
   xmlns="http://www.w3.org/2000/svg"
   viewBox="0 0 220 255.83759"
   height="255.83759"
   width="220"
   id="svg111"
   version="1.1">
  <metadata
     id="metadata117">
    <rdf:RDF>
      <cc:Work
         rdf:about="">
        <dc:format>image/svg+xml</dc:format>
        <dc:type
           rdf:resource="http://purl.org/dc/dcmitype/StillImage" />
        <dc:title></dc:title>
      </cc:Work>
    </rdf:RDF>
  </metadata>
  <defs
     id="defs115" />
  <g
     transform="translate(-18,-0.11472091)"
     id="g121">
    <path
       id="path125"
       d="m 59.374067,239.5 c 0.0023,-6.05 0.166961,-8.39607 0.366011,-5.21349 0.19905,3.18258 0.197204,8.13258 -0.0041,11 C 59.53467,248.15393 59.371811,245.55 59.374067,239.5 Z M 25,93.5 C 26.291745,92.125 27.573628,91 27.848628,91 28.123628,91 27.291745,92.125 26,93.5 24.708255,94.875 23.426372,96 23.151372,96 22.876372,96 23.708255,94.875 25,93.5 Z M 229.40499,92.75 227.5,90.5 l 2.25,1.904988 c 1.2375,1.047743 2.25,2.060243 2.25,2.25 0,0.800253 -0.80479,0.209457 -2.59501,-1.904988 z M 72.26375,70.282419 c 1.520062,-0.229855 3.770062,-0.223712 5,0.01365 1.229937,0.237362 -0.01375,0.425424 -2.76375,0.417917 -2.75,-0.0075 -3.756313,-0.201713 -2.23625,-0.431567 z M 121,3.6224447 c 0,-0.2076554 0.7875,-0.9951554 1.75,-1.75 C 124.33606,0.62857405 124.37143,0.66394438 123.12756,2.25 121.82119,3.915748 121,4.4454789 121,3.6224447 Z M 133,2.5 C 132.31531,1.675 131.98011,1 132.25511,1 c 0.275,0 1.0602,0.675 1.74489,1.5 0.68469,0.825 1.01989,1.5 0.74489,1.5 -0.275,0 -1.0602,-0.675 -1.74489,-1.5 z"
       style="fill:#8c8c8c;fill-opacity:1" />
    <path
       id="path123"
       d="M 65,255.29056 C 60.447174,253.61652 60,252.19692 60,239.41759 60,221.13148 52.364594,223 127.08781,223 c 43.17538,0 62.55295,0.33483 64.25487,1.11027 3.64637,1.6614 4.65732,5.002 4.65732,15.38973 0,10.83194 -1.07831,13.98305 -5.28706,15.45022 C 187.57945,256.04257 67.926173,256.3665 65,255.29056 Z M 65.204844,202.25 C 62.481472,199.88681 18,107.92568 18,104.65857 c 0,-1.78998 1.908307,-4.62538 6.202696,-9.216098 C 34.524016,84.408948 45.982962,77.188926 59.865237,72.972315 73.420094,68.855154 94.467339,71.563406 106.44491,78.96595 108.25505,80.084678 110.10591,81 110.55793,81 111.00996,81 106.79434,76.340236 101.1899,70.644969 92.919476,62.240521 91,59.735025 91,57.344076 91,53.973453 119.3658,6.0223192 123.59126,2.25 c 3.18902,-2.84703879 5.62846,-2.84703879 8.81748,0 C 136.6388,6.026431 165,53.973672 165,57.348549 c 0,2.405005 -1.987,4.97452 -10.75,13.901521 l -10.75,10.951184 7.14328,-3.614243 C 173.87611,66.832025 197.64111,68.86457 219.52127,84.477927 227.89534,90.453538 238,101.54793 238,104.7666 238,107.96024 193.46237,199.93555 190.79516,202.25 188.92208,203.87535 184.44928,204 128,204 71.550722,204 67.07792,203.87535 65.204844,202.25 Z"
       style="fill:#333333;fill-opacity:1" />
  </g>
</svg>
